<svg xmlns="http://www.w3.org/2000/svg" width="128" height="128" viewBox="0 0 128 128">
    <defs>
        <linearGradient id="grad1" x1="0%" y1="0%" x2="100%" y2="100%">
            <stop offset="0%" style="stop-color:#4F46E5;stop-opacity:1" />
            <stop offset="100%" style="stop-color:#7C3AED;stop-opacity:1" />
        </linearGradient>
    </defs>
    <rect width="128" height="128" rx="16" fill="url(#grad1)"/>
    <g fill="white" transform="translate(32, 32)">
        <path d="M56 8H8a8 8 0 0 0-8 8v32a8 8 0 0 0 8 8h48a8 8 0 0 0 8-8V16a8 8 0 0 0-8-8zm-4 20H20v-4h32v4zm0 8H20v-4h32v4zm0 8H20v-4h32v4z" opacity="0.9"/>
        <circle cx="52" cy="12" r="12" fill="#10B981"/>
    </g>
</svg>